# xmcd
#
# Track frame offsets:
#	180
#	22122
#	40206
#	62365
#	87603
#	109761
#	129572
#	149778
#	171351
#	191517
#	214769
#	236596
#	256437
#	278577
#
# Disc length: 3998 seconds
#
# Revision: 1
# Processed by: cddbd v1.5PL3 Copyright (c) Steve Scherf et al.
# Submitted via: EasyCDDAExtractor 5.0.6
#
DISCID=d30f9c0e
DTITLE=溫兆倫 - 感覺
DYEAR=1996
DGENRE=pop
TTITLE0=感覺
TTITLE1=諒解
TTITLE2=感謝你
TTITLE3=內疚
TTITLE4=為我守候
TTITLE5=我本善良
TTITLE6=難道真的我能忘記你
TTITLE7=說謊
TTITLE8=我們之間兩個世界
TTITLE9=藉口
TTITLE10=天地情緣
TTITLE11=永遠是你
TTITLE12=一生的愛給你
TTITLE13=還能愛我多久
EXTD=
EXTT0=
EXTT1=
EXTT2=
EXTT3=
EXTT4=
EXTT5=
EXTT6=
EXTT7=
EXTT8=
EXTT9=
EXTT10=
EXTT11=
EXTT12=
EXTT13=
PLAYORDER=
